<?xml version="1.0" encoding="utf-8"?>
<!-- Generator: Adobe Illustrator 27.8.1, SVG Export Plug-In . SVG Version: 6.00 Build 0)  -->
<svg version="1.1" id="Capa_1" xmlns="http://www.w3.org/2000/svg" xmlns:xlink="http://www.w3.org/1999/xlink" x="0px" y="0px"
	 viewBox="0 0 16 16" style="enable-background:new 0 0 16 16;" xml:space="preserve">
<style type="text/css">
	.st0{fill:#425C5A;}
</style>
<g>
	<path class="st0" d="M13.3,13.6H2.1c-0.5,0-0.8,0.4-0.8,0.8v0.8c0,0.5,0.4,0.8,0.8,0.8h11.2c0.5,0,0.8-0.4,0.8-0.8v-0.8
		C14.1,14,13.7,13.6,13.3,13.6z M2.9,15.8c0,0-0.1,0.1-0.1,0.1s-0.1,0-0.1-0.1c-0.4-0.4-0.4-1.4-0.1-1.9c0.1-0.1,0.2-0.1,0.3,0
		c0.1,0.1,0.1,0.2,0,0.3c-0.2,0.3-0.2,1.1,0,1.4C3,15.6,3,15.7,2.9,15.8z M12.8,15.8c0,0-0.1,0.1-0.1,0.1c0,0-0.1,0-0.1-0.1
		c-0.1-0.1-0.1-0.2,0-0.3c0.3-0.3,0.2-1.1,0-1.4c-0.1-0.1,0-0.2,0-0.3c0.1-0.1,0.2,0,0.3,0C13.2,14.3,13.2,15.4,12.8,15.8z"/>
	<path class="st0" d="M11.8,10.2c-0.1,0.2-0.3,0.3-0.6,0.3H4.5c-0.5,0-0.9-0.4-0.9-0.9V9c0-0.5,0.4-0.9,0.9-0.9h6.8
		c0.2,0,0.4,0.1,0.5,0.3l0,0H4.6C4.2,8.4,3.9,8.7,3.9,9v0.6c0,0.3,0.3,0.6,0.6,0.6L11.8,10.2L11.8,10.2z"/>
	<path class="st0" d="M8.6,11.2h5.8l0,0c-0.1-0.2-0.3-0.3-0.5-0.3H2c-0.6,0-1,0.5-1,1v0.3c0,0.6,0.5,1,1,1h11.9
		c0.2,0,0.4-0.1,0.5-0.3l0,0H8.6C8.3,13,8,12.7,8,12.4v-0.6C8,11.5,8.3,11.2,8.6,11.2z M1.9,12.9C1.9,13,1.9,13,1.9,12.9
		c-0.1,0-0.1,0-0.1,0c-0.4-0.4-0.4-1.3-0.1-1.7c0,0,0.1-0.1,0.1,0c0,0,0.1,0.1,0,0.1c-0.2,0.3-0.3,1.2,0,1.5C2,12.8,2,12.9,1.9,12.9
		z M7.4,12.9C7.4,13,7.4,13,7.4,12.9c-0.1,0-0.1,0-0.1,0c-0.4-0.4-0.4-1.3-0.1-1.7c0,0,0.1-0.1,0.1,0c0,0,0.1,0.1,0,0.1
		c-0.2,0.3-0.3,1.2,0,1.5C7.4,12.8,7.4,12.9,7.4,12.9z"/>
	<path class="st0" d="M7.9,3.9c0-0.2-0.1-0.3-0.2-0.5C7.5,3.3,7.3,3.3,7.2,3.2C7,2.9,7.1,2.5,7.3,2.3C7.5,2.1,7.7,2,7.8,1.9
		C8,1.6,7.9,1.3,7.6,1.1C7.4,0.9,7.2,0.7,7.2,0.4C7.3,0.7,7.5,0.8,7.7,1C7.9,1.1,8,1.3,8,1.5c0,0.2,0,0.4-0.2,0.6
		C7.6,2.2,7.4,2.4,7.3,2.6c-0.1,0.1,0,0.3,0,0.4c0.1,0.1,0.3,0.2,0.4,0.4C7.9,3.5,7.9,3.7,7.9,3.9L7.9,3.9z"/>
	<path class="st0" d="M8.3,3.8c0-0.2-0.1-0.4-0.3-0.5C7.9,3.2,7.7,3.1,7.6,3C7.5,2.6,8,2.4,8.2,2.2C8.3,2.1,8.3,2,8.3,1.9
		c0,0.1,0,0.2-0.1,0.3C8.1,2.3,8,2.5,7.8,2.6C7.8,2.7,7.7,2.7,7.7,2.8C7.7,3.2,8.3,3.1,8.3,3.8L8.3,3.8z"/>
	<path class="st0" d="M10.2,4.3c0,2.5-1.2,3.4-2.5,3.4s-2.6-1-2.5-3.4H10.2z"/>
	<path class="st0" d="M11.1,4.8c-0.4-0.3-0.8-0.1-0.8-0.1l0,0.2c0.1,0,0.4-0.1,0.6,0.1c0.3,0.3,0.1,1.3-0.9,1.2l0,0.2
		C11.3,6.5,11.4,5.1,11.1,4.8z"/>
</g>
</svg>
