<?xml version="1.0" encoding="utf-8"?>
<!-- Generator: Adobe Illustrator 27.8.1, SVG Export Plug-In . SVG Version: 6.00 Build 0)  -->
<svg version="1.1" id="Capa_1" xmlns="http://www.w3.org/2000/svg" xmlns:xlink="http://www.w3.org/1999/xlink" x="0px" y="0px"
	 viewBox="0 0 148.9 172.2" style="enable-background:new 0 0 148.9 172.2;" xml:space="preserve">
<style type="text/css">
	.st0{fill:#FFCEA2;}
</style>
<path class="st0" d="M135,145.5H13.8c-4.9,0-8.8,3.9-8.8,8.8v8.3c0,4.9,4,8.8,8.8,8.8H135c4.9,0,8.8-3.9,8.8-8.8v-8.3
	C143.9,149.4,139.9,145.5,135,145.5z M22.4,168.7c-0.4,0.4-0.9,0.6-1.4,0.6s-1-0.2-1.4-0.6c-4.3-4.3-4.1-15.4-0.8-20.2
	c0.6-0.9,1.9-1.1,2.8-0.5s1.1,1.9,0.5,2.8c-2.3,3.4-2.5,12.2,0.3,15.1C23.1,166.6,23.1,167.9,22.4,168.7z M129.5,168.7
	c-0.4,0.4-0.9,0.6-1.4,0.6s-1-0.2-1.4-0.6c-0.8-0.8-0.8-2.1,0-2.8c2.9-2.9,2.7-11.8,0.3-15.1c-0.6-0.9-0.4-2.1,0.5-2.8
	c0.9-0.6,2.2-0.4,2.8,0.5C133.6,153.3,133.8,164.4,129.5,168.7z"/>
<path class="st0" d="M119,108.2c-1.1,2.1-3.4,3.6-6,3.6H39.7c-5.4,0-9.7-4.4-9.7-9.7v-6.5c0-5.4,4.4-9.7,9.7-9.7h73.4
	c2.3,0,4.3,1.2,5.6,2.9l0,0H40.3c-3.7,0-6.7,3-6.7,6.7v6.2c0,3.7,3,6.7,6.7,6.7L119,108.2L119,108.2z"/>
<path class="st0" d="M84.3,119.3h62.5l0,0c-0.9-2.1-3-3.6-5.4-3.6H12.2c-6.1,0-11.1,5-11.1,11.1v3.7c0,6.1,5,11.1,11.1,11.1h129.1
	c2.2,0,4.1-1.2,5.1-2.9l0,0H84.3c-3.5,0-6.3-2.8-6.3-6.3v-6.7C78,122.1,80.8,119.3,84.3,119.3z M11.7,138.2
	c-0.2,0.2-0.5,0.3-0.7,0.3s-0.5-0.1-0.7-0.3c-4-4.1-3.8-14.4-0.7-18.9c0.3-0.4,0.9-0.6,1.4-0.2c0.5,0.3,0.6,0.9,0.2,1.4
	c-2.6,3.7-2.8,13.2,0.5,16.4C12.1,137.2,12.1,137.8,11.7,138.2z M71.1,138.2c-0.2,0.2-0.4,0.3-0.7,0.3s-0.5-0.1-0.7-0.3
	c-4.1-4.1-3.8-14.4-0.7-18.9c0.3-0.5,0.9-0.6,1.4-0.2c0.4,0.3,0.6,0.9,0.2,1.4c-2.6,3.7-2.8,13.2,0.5,16.4
	C71.5,137.2,71.5,137.8,71.1,138.2z"/>
<path class="st0" d="M76.7,40.4c-0.1-2-1.3-3.7-2.7-4.9c-1.5-1.4-3.5-1.9-4.9-3.5c-2.1-2.8-1.6-7,0.9-9.3c1.6-1.8,4.1-2.9,5.3-4.8
	c1.8-2.8,0.9-6.1-1.7-8.1c-2.1-2.1-4.4-4.6-4.4-7.7c0.7,3,3,4.9,5.2,6.7c1.7,1.2,3.3,3.1,3.5,5.3c0.3,2.2-0.5,4.6-2.1,6.2
	c-2.1,1.9-4.9,3.3-6,5.8c-0.6,1.4-0.4,3.5,0.4,4.8c0.9,1.3,2.9,2.2,4.3,3.8C76,36.3,77,38.4,76.7,40.4L76.7,40.4z"/>
<path class="st0" d="M80.3,38.5c-0.2-2.1-1.1-4-2.9-5c-1.3-0.8-3.1-1.6-3.7-3.3c-1.4-4.3,3.7-6.4,6-9c0.8-0.7,1.5-1.5,1.5-2.6
	c0.3,1.1-0.4,2.1-1.1,2.9c-1.3,1.6-3,3-4.3,4.5c-0.7,0.8-1.2,1.6-1.3,2.5C74.3,33,80.8,31.8,80.3,38.5L80.3,38.5z"/>
<path class="st0" d="M101.7,44.9c0.1,26.8-12.5,37.1-27,37.1S46.6,71.6,47.5,44.9H101.7z"/>
<path class="st0" d="M110.7,49.9c-4.2-3.7-9.1-1.2-9.1-1.2l-0.5,2.1c0.6-0.2,3.8-1.4,6.9,1c3.5,2.8,0.8,13.7-9.9,13.2l-0.5,2
	C113.1,68.2,114.6,53.4,110.7,49.9z"/>
</svg>
