<?xml version="1.0" encoding="utf-8"?>
<!-- Generator: Adobe Illustrator 27.8.1, SVG Export Plug-In . SVG Version: 6.00 Build 0)  -->
<svg version="1.1" id="Capa_1" xmlns="http://www.w3.org/2000/svg" xmlns:xlink="http://www.w3.org/1999/xlink" x="0px" y="0px"
	 viewBox="0 0 397.4 512" style="enable-background:new 0 0 397.4 512;" xml:space="preserve">
<style type="text/css">
	.st0{fill:#425C5A;}
</style>
<path class="st0" d="M179.3,420.6c-20.3-13.6-41.6-22.8-63.9-29.9c-24.7-7.8-50-12.9-75.8-15.9c-23.2-2.7-39.5-20.3-39.5-43.7
	C0,259.2,0,187.3,0.1,115.4c0-18.5,9.7-33.2,25.4-37.1c6.4-1.6,13.5-1.3,20.2-0.5c33.6,4.3,66.4,11.7,97.5,25.5
	c11.3,5,21.9,11.5,32.9,17.3c2.4,1.2,3.3,2.9,3.3,5.7c-0.1,96.9-0.1,193.8-0.1,290.7C179.3,417.9,179.3,418.8,179.3,420.6z
	 M134.2,213c7.8,0,13.3-3.9,15.3-10.2c2.4-7.5-1.4-15.1-9.4-18.1c-25.4-9.8-51.6-16.1-78.4-20.4c-8.7-1.4-16.5,3.4-17.8,11.3
	c-1.5,8.7,3.9,15.8,13.1,17.3c24.5,4,48.6,9.7,71.9,18.5C131,212.3,133.2,212.7,134.2,213z M111.3,263.9c0-6.8-4.1-12.5-11.1-14.1
	c-13.2-2.9-26.6-5.6-39.9-8c-7.9-1.4-15.1,4-16.4,11.5c-1.4,8.2,3.5,15.3,11.8,17c12.7,2.6,25.4,5.3,38.1,7.8
	C103,280,111.3,273.2,111.3,263.9z"/>
<path class="st0" d="M387.6,296.9c-8.8-2.1-17.2-4.6-25.8-5.9c-49.6-7.6-99.1,27.6-107.8,77c-1.5,8.7-1.1,17.8-1.8,26.6
	c-0.1,1.3-0.8,3.3-1.9,3.8c-7,3.5-14.4,6.4-21.3,10c-6.8,3.5-13.4,7.6-20.4,11.6c-0.1-1.6-0.2-3-0.2-4.5c0-96.2,0-192.3-0.1-288.5
	c0-3.3,1.1-5.1,3.9-6.8c27.5-17.6,57.8-28.2,89.4-35.2c15.5-3.4,31.2-5.9,46.9-8.1c19.6-2.7,37.5,12.8,38.9,33.1
	c0.2,2.4,0.2,4.8,0.2,7.3c0,58.3,0,116.6,0,174.9C387.6,293.9,387.6,295.6,387.6,296.9z"/>
<path class="st0" d="M329.5,396.5c-8.4,0-16.4,0.1-24.4,0c-5.8-0.1-10.2-3-12.7-8.1c-2.4-4.8-2.2-9.7,0.8-14.3
	c2.9-4.5,7.2-6.7,12.6-6.7c7.7,0,15.4,0,23.7,0c10.1,0,21,0,29,0c8.4,0,16.4-0.1,24.4,0c10.6,0.2,17.5,10.7,13.4,20.1
	c-2.5,5.8-7.2,8.8-13.6,8.9c-7.6,0.1-15.1,0.1-22.7,0.1C359.7,396.6,335.2,396.5,329.5,396.5z"/>
</svg>
